<?xml version="1.0" standalone="no"?>
<!DOCTYPE svg PUBLIC "-//W3C//DTD SVG 20010904//EN"
 "http://www.w3.org/TR/2001/REC-SVG-20010904/DTD/svg10.dtd">
<svg version="1.0" xmlns="http://www.w3.org/2000/svg"
 width="100.000000pt" height="100.000000pt" viewBox="0 0 100.000000 100.000000"
 preserveAspectRatio="xMidYMid meet">
<metadata>
Created by potrace 1.14, written by Peter Selinger 2001-2017
</metadata>
<g transform="translate(0.000000,100.000000) scale(0.100000,-0.100000)"
fill="#000000" stroke="none">
<path d="M234 851 c-17 -10 -36 -33 -44 -50 -18 -44 -7 -127 24 -189 45 -88
28 -135 -39 -114 -44 13 -52 1 -24 -37 18 -24 20 -37 15 -75 -8 -51 -6 -53 29
-30 24 15 25 15 25 -2 1 -49 84 -174 116 -174 7 0 18 19 25 42 38 143 127 209
194 142 31 -30 59 -84 74 -142 7 -23 17 -42 24 -42 21 0 75 62 96 110 34 78
35 111 6 231 -5 18 2 45 20 85 15 32 29 82 32 111 4 35 9 50 17 46 6 -4 18 -8
26 -10 8 -1 21 -11 29 -22 16 -25 46 -29 37 -6 -6 16 26 55 44 55 5 0 7 7 4
15 -3 8 -9 14 -12 13 -20 -2 -34 5 -57 29 -14 15 -26 22 -26 15 -1 -6 -2 -16
-3 -22 -2 -14 -34 -50 -46 -50 -6 0 -14 10 -19 23 -26 68 -109 84 -229 43
l-78 -26 -72 25 c-85 30 -146 32 -188 6z m201 -39 c56 -22 79 -20 145 7 77 33
141 31 177 -5 23 -23 25 -31 21 -88 -3 -38 -15 -81 -32 -113 -30 -61 -31 -72
-10 -133 26 -74 -2 -196 -55 -244 -18 -17 -20 -15 -35 32 -39 117 -127 179
-199 140 -40 -21 -76 -70 -102 -141 -17 -45 -19 -47 -36 -31 -24 22 -59 94
-59 123 0 20 4 21 35 15 39 -7 42 -3 20 30 -21 32 -26 62 -15 91 7 18 6 27 -4
32 -7 4 -15 17 -19 28 -3 11 -17 47 -31 80 -27 63 -33 133 -15 166 26 49 105
53 214 11z m469 -37 c-3 -8 -12 -11 -19 -9 -8 3 -11 12 -9 19 3 8 12 11 19 9
8 -3 11 -12 9 -19z m-646 -335 c0 -16 -2 -30 -6 -31 -4 0 -17 -2 -29 -5 -15
-2 -23 1 -23 10 0 8 -3 21 -6 29 -3 10 2 17 13 20 42 11 50 7 51 -23z"/>
<path d="M107 239 c-10 -6 -28 -10 -40 -9 -36 3 -38 1 -21 -25 10 -16 14 -34
10 -50 -5 -18 -2 -25 8 -25 8 0 18 5 22 11 3 6 20 9 36 7 34 -5 45 6 27 28 -6
8 -12 28 -11 44 1 32 -3 35 -31 19z m3 -49 c0 -5 -4 -10 -9 -10 -6 0 -13 5
-16 10 -3 6 1 10 9 10 9 0 16 -4 16 -10z"/>
</g>
</svg>
