<svg width="51" height="50" viewBox="0 0 51 50" fill="none" xmlns="http://www.w3.org/2000/svg">
<path fill-rule="evenodd" clip-rule="evenodd" d="M43.2188 5.84375C41.5964 5.84375 40.2812 7.15891 40.2812 8.78125C40.2812 10.4036 41.5964 11.7188 43.2188 11.7188C44.8411 11.7188 46.1562 10.4036 46.1562 8.78125C46.1562 7.15891 44.8411 5.84375 43.2188 5.84375ZM38.2812 8.78125C38.2812 6.05434 40.4918 3.84375 43.2188 3.84375C45.9457 3.84375 48.1562 6.05434 48.1562 8.78125C48.1562 11.5082 45.9457 13.7188 43.2188 13.7188C40.4918 13.7188 38.2812 11.5082 38.2812 8.78125Z" fill="#099DBA"/>
<path fill-rule="evenodd" clip-rule="evenodd" d="M43.2188 0.890625C43.771 0.890625 44.2188 1.33834 44.2188 1.89062V4.84375C44.2188 5.39603 43.771 5.84375 43.2188 5.84375C42.6665 5.84375 42.2188 5.39603 42.2188 4.84375V1.89062C42.2188 1.33834 42.6665 0.890625 43.2188 0.890625Z" fill="#099DBA"/>
<path fill-rule="evenodd" clip-rule="evenodd" d="M36.3851 4.8361C36.6613 4.35781 37.2729 4.19394 37.7511 4.47008L40.3086 5.94664C40.7869 6.22278 40.9508 6.83438 40.6746 7.31267C40.3985 7.79096 39.7869 7.95483 39.3086 7.67869L36.7511 6.20213C36.2729 5.92599 36.109 5.3144 36.3851 4.8361Z" fill="#099DBA"/>
<path fill-rule="evenodd" clip-rule="evenodd" d="M40.6746 10.2502C40.9508 10.7285 40.7869 11.34 40.3086 11.6162L37.7511 13.0928C37.2729 13.3689 36.6613 13.205 36.3851 12.7267C36.109 12.2484 36.2729 11.6368 36.7511 11.3607L39.3086 9.88414C39.7869 9.608 40.3985 9.77187 40.6746 10.2502Z" fill="#099DBA"/>
<path fill-rule="evenodd" clip-rule="evenodd" d="M43.2188 11.7188C43.771 11.7188 44.2188 12.1665 44.2188 12.7188V15.6719C44.2188 16.2242 43.771 16.6719 43.2188 16.6719C42.6665 16.6719 42.2188 16.2242 42.2188 15.6719V12.7188C42.2188 12.1665 42.6665 11.7188 43.2188 11.7188Z" fill="#099DBA"/>
<path fill-rule="evenodd" clip-rule="evenodd" d="M45.763 10.2502C46.0392 9.77187 46.6508 9.608 47.1291 9.88414L49.6866 11.3607C50.1648 11.6368 50.3287 12.2484 50.0526 12.7267C49.7764 13.205 49.1648 13.3689 48.6865 13.0928L46.1291 11.6162C45.6508 11.34 45.4869 10.7285 45.763 10.2502Z" fill="#099DBA"/>
<path fill-rule="evenodd" clip-rule="evenodd" d="M50.0526 4.8361C50.3287 5.3144 50.1648 5.92599 49.6866 6.20213L47.1291 7.67869C46.6508 7.95483 46.0392 7.79096 45.763 7.31267C45.4869 6.83438 45.6508 6.22278 46.1291 5.94664L48.6865 4.47008C49.1648 4.19394 49.7764 4.35781 50.0526 4.8361Z" fill="#099DBA"/>
<path fill-rule="evenodd" clip-rule="evenodd" d="M25.5002 35.375C20.8372 35.375 16.2562 36.602 12.2175 38.9329C8.17887 41.2639 4.82472 44.6166 2.49202 48.6542C2.21574 49.1324 1.60411 49.2961 1.12589 49.0198C0.64768 48.7436 0.483982 48.1319 0.760262 47.6537C3.26853 43.3121 6.87515 39.7071 11.2178 37.2007C15.5605 34.6944 20.4862 33.3749 25.5002 33.375C30.5143 33.3751 35.44 34.6946 39.7826 37.201C44.1252 39.7075 47.7317 43.3126 50.2399 47.6542C50.5162 48.1324 50.3525 48.7441 49.8743 49.0203C49.396 49.2966 48.7844 49.1329 48.5081 48.6547C46.1755 44.617 42.8214 41.2642 38.7828 38.9332C34.7442 36.6022 30.1633 35.375 25.5002 35.375Z" fill="#099DBA"/>
<path fill-rule="evenodd" clip-rule="evenodd" d="M27.5422 4.01519C24.8254 3.63785 22.0571 4.02588 19.5488 5.13565C17.0404 6.24542 14.8914 8.03293 13.3433 10.2972C11.7952 12.5615 10.9094 15.2127 10.7855 17.9528C10.6617 20.6929 11.3047 23.4132 12.6423 25.8079C13.9798 28.2026 15.9588 30.1766 18.3569 31.5082C20.7549 32.8397 23.4768 33.4758 26.2166 33.3451C28.9564 33.2144 31.6054 32.3219 33.8658 30.7681C36.1261 29.2143 37.9082 27.0608 39.0117 24.5497C39.2339 24.044 39.8239 23.8143 40.3295 24.0364C40.8351 24.2586 41.0649 24.8486 40.8427 25.3542C39.5896 28.206 37.5657 30.6517 34.9987 32.4163C32.4317 34.1809 29.4234 35.1944 26.312 35.3428C23.2005 35.4913 20.1093 34.7688 17.386 33.2567C14.6627 31.7446 12.4151 29.5027 10.8962 26.7832C9.37718 24.0636 8.64695 20.9743 8.78759 17.8625C8.92822 14.7507 9.93415 11.7398 11.6923 9.16838C13.4504 6.59696 15.8909 4.56697 18.7396 3.30666C21.5882 2.04634 24.732 1.60568 27.8173 2.0342C28.3644 2.11018 28.7462 2.61523 28.6703 3.16227C28.5943 3.7093 28.0892 4.09117 27.5422 4.01519Z" fill="#099DBA"/>
</svg>
